<svg width="24" height="24" viewBox="0 0 24 24" fill="none" xmlns="http://www.w3.org/2000/svg">
<path d="M9.5 13.5L4.5 18.5C4.22386 18.7761 4.22386 19.2239 4.5 19.5C4.77614 19.7761 5.22386 19.7761 5.5 19.5L10.5 14.5C10.7761 14.2239 10.7761 13.7761 10.5 13.5C10.2239 13.2239 9.77614 13.2239 9.5 13.5Z" fill="#000"/>
<path fill-rule="evenodd" clip-rule="evenodd" d="M14 14C16.2091 14 18 12.2091 18 10C18 7.79086 16.2091 6 14 6C11.7909 6 10 7.79086 10 10C10 12.2091 11.7909 14 14 14ZM14 16C17.3137 16 20 13.3137 20 10C20 6.68629 17.3137 4 14 4C10.6863 4 8 6.68629 8 10C8 13.3137 10.6863 16 14 16Z" fill="#000"/>
</svg>
